PathFileType	4	(X/Y/Z)	C:/Users/opensim2020/Desktop/walking_exp_matlab/subject01_walking11_straight_02.trc	
DataRate	CameraRate	NumFrames	NumMarkers	Units	OrigDataRate	OrigDataStartFrame	OrigNumFrames	
100.00	100.00	4	44	mm	100.00	2173	266	
Frame#	Time	LFHD			RFHD			LBHD			RBHD			C7			T10			CLAV			STRN			RBAK			LSHO			LUPA			LELB			LFRM			LWRA			LWRB			LFIN			RSHO			RUPA			RELB			RFRM			RWRA			RWRB			RFIN			LASI			RASI			LPSI			RPSI			LTHI			LKNE			LTIB			LANK			LHEE			LTOE			RTHI			RKNE			RTIB			RANK			RHEE			RTOE			*39			*40			*41			*42			*43			
		X1	Y1	Z1	X2	Y2	Z2	X3	Y3	Z3	X4	Y4	Z4	X5	Y5	Z5	X6	Y6	Z6	X7	Y7	Z7	X8	Y8	Z8	X9	Y9	Z9	X10	Y10	Z10	X11	Y11	Z11	X12	Y12	Z12	X13	Y13	Z13	X14	Y14	Z14	X15	Y15	Z15	X16	Y16	Z16	X17	Y17	Z17	X18	Y18	Z18	X19	Y19	Z19	X20	Y20	Z20	X21	Y21	Z21	X22	Y22	Z22	X23	Y23	Z23	X24	Y24	Z24	X25	Y25	Z25	X26	Y26	Z26	X27	Y27	Z27	X28	Y28	Z28	X29	Y29	Z29	X30	Y30	Z30	X31	Y31	Z31	X32	Y32	Z32	X33	Y33	Z33	X34	Y34	Z34	X35	Y35	Z35	X36	Y36	Z36	X37	Y37	Z37	X38	Y38	Z38	X39	Y39	Z39	X40	Y40	Z40	X41	Y41	Z41	X42	Y42	Z42	X43	Y43	Z43	X44	Y44	Z44	

233	2.320	-970.14063	-749.65289	1652.08337	-1069.84180	-804.40637	1656.80811	-1024.40955	-640.85486	1618.90735	-1130.28003	-696.38782	1623.90027	-1059.00732	-602.13110	1418.61853	-1073.24963	-575.01678	1123.16846	-1046.20715	-748.23853	1353.73267	-1043.75977	-794.81897	1200.24866	-1143.99939	-557.93317	1222.61182	-890.36108	-667.10211	1378.03918	-820.12738	-617.55389	1190.93835	-830.16351	-593.85461	1043.52563	-802.80847	-614.39160	932.40582	-815.36566	-677.01300	806.04645	-795.84564	-619.50677	810.04431	-784.84540	-655.77020	732.55945	-1201.24036	-691.98480	1385.43262	-1314.54688	-652.85681	1187.84180	-1324.53760	-664.64655	1063.15747	-1358.45972	-714.68933	953.65216	-1341.12964	-816.85052	855.62238	-1380.92468	-774.56952	848.06995	-1379.69983	-827.05719	779.79840	-962.52820	-750.87927	919.72974	-1180.44788	-750.78503	914.36426	-1011.29413	-563.19043	933.27631	-1156.44507	-565.08185	937.85712	-907.36047	-785.44135	601.70502	-927.00476	-807.70087	471.79376	-918.69745	-795.22412	281.57327	-974.07129	-816.57410	65.35441	-1032.72449	-780.80316	34.44933	-957.78180	-960.88678	38.48082	-1228.83289	-645.99896	587.81281	-1205.57300	-620.34106	427.27255	-1209.56641	-498.58688	296.87921	-1161.96533	-386.53571	121.21651	-1111.57751	-326.91928	108.08053	-1151.02734	-499.31339	32.92095	-1051.78040	-788.82745	1691.46350	-3101.84521	1973.16589	1023.68909	-3140.25073	2012.60596	1022.06116						 
234	2.330	-967.64099	-755.92786	1652.82397	-1067.29358	-810.85516	1657.89478	-1022.21442	-647.35187	1619.28992	-1127.96167	-703.09467	1624.60962	-1057.09045	-609.41913	1418.79626	-1071.76855	-583.22968	1123.52917	-1044.03174	-755.30627	1354.47986	-1041.71777	-802.82849	1201.21228	-1142.16052	-565.77838	1223.02136	-888.27429	-674.13873	1378.41162	-818.28070	-625.60815	1191.02161	-828.31604	-602.99707	1043.50171	-800.92969	-623.72913	932.55957	-813.46259	-686.88489	806.44769	-793.72998	-629.38898	810.17761	-782.92346	-665.76349	732.90161	-1199.02930	-699.44781	1386.13574	-1312.04553	-659.85254	1188.53528	-1322.09924	-671.49402	1064.00330	-1355.88660	-720.57544	954.16193	-1338.91895	-821.79871	855.19611	-1378.79272	-779.35089	848.21674	-1377.51611	-831.16345	779.09973	-960.73914	-759.28638	920.81915	-1178.54126	-759.45575	914.92529	-1010.27313	-571.57062	934.04541	-1155.42432	-573.88239	938.13861	-905.48450	-793.51642	602.42181	-925.90967	-815.01617	471.53723	-917.35889	-799.83978	281.22867	-973.93195	-817.87238	65.45804	-1032.41907	-781.28375	34.76314	-958.01379	-962.13623	37.17420	-1228.44873	-657.17188	587.89276	-1205.82117	-631.96613	427.18332	-1208.86865	-506.68369	299.96655	-1161.76050	-391.29959	126.44282	-1110.76379	-332.02078	115.28177	-1150.97803	-499.85159	32.85889	-1049.17102	-794.98938	1692.38757	-3101.97900	1973.14441	1023.86316	-3140.39673	2012.52710	1022.03967						 
235	2.340	-965.23590	-762.11926	1653.66895	-1064.70081	-817.28845	1659.04834	-1020.01593	-653.84283	1619.63513	-1125.60278	-709.82251	1625.27979	-1054.23511	-616.47552	1419.20679	-1070.29077	-591.26514	1123.92920	-1041.82129	-762.37396	1355.26587	-1039.75854	-810.75366	1202.17932	-1140.52344	-573.66168	1223.52856	-886.33337	-681.26343	1378.86047	-816.39893	-633.73785	1191.26807	-826.45093	-611.70471	1043.68848	-798.98975	-633.24884	932.88147	-811.51715	-696.84247	806.99542	-791.87390	-639.26221	810.55493	-780.99518	-675.95337	733.26959	-1196.88550	-706.94696	1387.09753	-1309.78516	-666.72845	1189.42505	-1319.61316	-678.21875	1064.95142	-1353.81287	-726.23975	954.85199	-1336.52222	-826.48517	854.62439	-1376.42896	-783.98035	848.01447	-1375.24487	-835.02673	778.52893	-958.72430	-767.53058	921.99713	-1176.50586	-768.01587	915.67377	-1009.06714	-579.87781	934.76593	-1154.31787	-582.44073	938.69434	-903.88074	-801.12256	602.79486	-924.93207	-821.84839	471.25519	-916.37848	-804.55267	281.15543	-973.97040	-818.82062	65.56403	-1032.20959	-781.63031	35.04709	-958.46326	-963.34027	35.93476	-1227.22485	-669.22089	587.52441	-1206.37292	-644.36969	426.98947	-1208.29456	-515.68390	303.09094	-1161.75781	-396.71243	132.35219	-1109.90015	-338.07681	123.12291	-1150.77930	-500.66284	33.08033	-1046.60022	-801.23651	1693.53809	-3101.95361	1973.13306	1023.71582	-3140.33789	2012.55505	1022.01678						 
236	2.350	-962.85205	-768.36469	1654.40845	-1062.11926	-823.71985	1660.16296	-1017.95502	-660.36621	1620.03394	-1123.33398	-716.56677	1625.97559	-1052.26563	-623.98267	1419.57874	-1068.78235	-599.29114	1124.41052	-1039.75085	-769.78491	1356.13489	-1037.86230	-818.50928	1203.05957	-1139.08276	-581.47528	1224.16309	-884.33545	-688.44794	1379.43848	-814.51166	-641.76666	1191.62964	-824.50067	-620.59436	1044.04797	-796.99457	-642.73401	933.32343	-809.47931	-706.97864	807.70251	-789.96539	-649.33252	811.05542	-778.87207	-686.52631	733.88098	-1194.94629	-714.32196	1388.06677	-1307.40381	-673.61328	1190.41138	-1317.13477	-684.87524	1065.93872	-1351.36316	-731.93048	955.46649	-1334.20227	-831.13367	854.12720	-1374.07166	-788.44965	847.98773	-1372.85376	-838.81976	777.88080	-956.58490	-775.58789	923.04358	-1174.29370	-776.27911	916.50012	-1007.66486	-588.05054	935.35138	-1152.97156	-590.82446	939.17645	-902.64166	-807.99219	602.64282	-923.95935	-828.23602	471.00735	-915.79956	-809.47894	281.01141	-974.05707	-819.94745	65.57556	-1032.13489	-781.98676	35.21136	-958.81616	-964.47382	34.85555	-1226.75708	-681.45508	587.42133	-1207.19958	-657.61530	426.73456	-1208.09851	-525.43304	306.60205	-1161.41064	-403.03333	138.17569	-1108.70459	-345.31528	131.22572	-1150.32825	-501.70032	32.97219	-1043.98682	-807.48834	1694.59851	-3102.05127	1973.03870	1023.70221	-3140.41943	2012.66150	1022.22992						 
